<mxfile host="app.diagrams.net" modified="2023-04-27T14:58:02.366Z" agent="Mozilla/5.0 (Windows NT 10.0; Win64; x64) AppleWebKit/537.36 (KHTML, like Gecko) Chrome/112.0.0.0 Safari/537.36 Edg/112.0.1722.58" etag="l8sS3VuO5kcB4_cXjUaf" version="21.2.3" type="github">
  <diagram name="Page-1" id="D3bwhRHWnsqV5eptxPOC">
    <mxGraphModel dx="1986" dy="2267" grid="1" gridSize="10" guides="1" tooltips="1" connect="1" arrows="1" fold="1" page="1" pageScale="1" pageWidth="827" pageHeight="1169" math="0" shadow="0">
      <root>
        <mxCell id="0" />
        <mxCell id="1" parent="0" />
        <mxCell id="XuWK6bejoGOQTM-Fjr_7-2" value="" style="endArrow=none;html=1;rounded=0;entryX=0.5;entryY=1;entryDx=0;entryDy=0;" parent="1" edge="1">
          <mxGeometry width="50" height="50" relative="1" as="geometry">
            <mxPoint x="299.5" y="50" as="sourcePoint" />
            <mxPoint x="299.5" as="targetPoint" />
          </mxGeometry>
        </mxCell>
        <mxCell id="XuWK6bejoGOQTM-Fjr_7-10" value="" style="endArrow=none;html=1;rounded=0;" parent="1" edge="1">
          <mxGeometry width="50" height="50" relative="1" as="geometry">
            <mxPoint x="80" y="200" as="sourcePoint" />
            <mxPoint x="340" y="200" as="targetPoint" />
          </mxGeometry>
        </mxCell>
        <mxCell id="XuWK6bejoGOQTM-Fjr_7-13" value="user input&lt;br&gt;Getline" style="rhombus;whiteSpace=wrap;html=1;" parent="1" vertex="1">
          <mxGeometry x="260" y="40" width="80" height="80" as="geometry" />
        </mxCell>
        <mxCell id="XuWK6bejoGOQTM-Fjr_7-14" value="" style="endArrow=none;html=1;rounded=0;" parent="1" edge="1" target="XuWK6bejoGOQTM-Fjr_7-13" source="8VTQey7MwOSxeYWRsPwg-12">
          <mxGeometry width="50" height="50" relative="1" as="geometry">
            <mxPoint x="299.5" y="320" as="sourcePoint" />
            <mxPoint x="299.5" y="200" as="targetPoint" />
          </mxGeometry>
        </mxCell>
        <mxCell id="XuWK6bejoGOQTM-Fjr_7-15" value="" style="endArrow=none;html=1;rounded=0;" parent="1" edge="1">
          <mxGeometry width="50" height="50" relative="1" as="geometry">
            <mxPoint x="410" y="280" as="sourcePoint" />
            <mxPoint x="410" y="200" as="targetPoint" />
          </mxGeometry>
        </mxCell>
        <mxCell id="XuWK6bejoGOQTM-Fjr_7-16" value="" style="endArrow=none;html=1;rounded=0;" parent="1" edge="1">
          <mxGeometry width="50" height="50" relative="1" as="geometry">
            <mxPoint x="300" y="200" as="sourcePoint" />
            <mxPoint x="520" y="200" as="targetPoint" />
          </mxGeometry>
        </mxCell>
        <mxCell id="XuWK6bejoGOQTM-Fjr_7-17" value="Exit the program&lt;br&gt;with code 0" style="ellipse;whiteSpace=wrap;html=1;" parent="1" vertex="1">
          <mxGeometry x="360" y="280" width="100" height="50" as="geometry" />
        </mxCell>
        <mxCell id="XuWK6bejoGOQTM-Fjr_7-18" value="Exit" style="text;html=1;strokeColor=none;fillColor=none;align=center;verticalAlign=middle;whiteSpace=wrap;rounded=0;" parent="1" vertex="1">
          <mxGeometry x="380" y="170" width="60" height="30" as="geometry" />
        </mxCell>
        <mxCell id="8VTQey7MwOSxeYWRsPwg-2" value="" style="endArrow=none;html=1;rounded=0;" edge="1" parent="1">
          <mxGeometry width="50" height="50" relative="1" as="geometry">
            <mxPoint x="80" y="280" as="sourcePoint" />
            <mxPoint x="80" y="200" as="targetPoint" />
          </mxGeometry>
        </mxCell>
        <mxCell id="8VTQey7MwOSxeYWRsPwg-3" value="Incorrect command" style="text;html=1;strokeColor=none;fillColor=none;align=center;verticalAlign=middle;whiteSpace=wrap;rounded=0;" vertex="1" parent="1">
          <mxGeometry x="110" y="160" width="60" height="30" as="geometry" />
        </mxCell>
        <mxCell id="8VTQey7MwOSxeYWRsPwg-5" value="Exit the program&lt;br&gt;with code 127" style="ellipse;whiteSpace=wrap;html=1;" vertex="1" parent="1">
          <mxGeometry x="30" y="280" width="100" height="50" as="geometry" />
        </mxCell>
        <mxCell id="8VTQey7MwOSxeYWRsPwg-13" value="" style="endArrow=none;html=1;rounded=0;exitX=0.5;exitY=0;exitDx=0;exitDy=0;" edge="1" parent="1" source="8VTQey7MwOSxeYWRsPwg-15" target="8VTQey7MwOSxeYWRsPwg-12">
          <mxGeometry width="50" height="50" relative="1" as="geometry">
            <mxPoint x="300" y="440" as="sourcePoint" />
            <mxPoint x="300" y="370" as="targetPoint" />
          </mxGeometry>
        </mxCell>
        <mxCell id="8VTQey7MwOSxeYWRsPwg-104" value="" style="edgeStyle=orthogonalEdgeStyle;rounded=0;orthogonalLoop=1;jettySize=auto;html=1;" edge="1" parent="1" source="8VTQey7MwOSxeYWRsPwg-15" target="8VTQey7MwOSxeYWRsPwg-33">
          <mxGeometry relative="1" as="geometry" />
        </mxCell>
        <mxCell id="8VTQey7MwOSxeYWRsPwg-15" value="Counts number&lt;br&gt;of inputed&lt;br&gt;arguments" style="ellipse;whiteSpace=wrap;html=1;" vertex="1" parent="1">
          <mxGeometry x="250" y="450" width="100" height="70" as="geometry" />
        </mxCell>
        <mxCell id="8VTQey7MwOSxeYWRsPwg-18" value="Main" style="ellipse;whiteSpace=wrap;html=1;aspect=fixed;" vertex="1" parent="1">
          <mxGeometry x="260" y="-80" width="80" height="80" as="geometry" />
        </mxCell>
        <mxCell id="8VTQey7MwOSxeYWRsPwg-23" value="" style="endArrow=none;html=1;rounded=0;" edge="1" parent="1">
          <mxGeometry width="50" height="50" relative="1" as="geometry">
            <mxPoint x="350" y="480" as="sourcePoint" />
            <mxPoint x="680" y="480" as="targetPoint" />
          </mxGeometry>
        </mxCell>
        <mxCell id="8VTQey7MwOSxeYWRsPwg-27" value="Input line is empty" style="text;html=1;strokeColor=none;fillColor=none;align=center;verticalAlign=middle;whiteSpace=wrap;rounded=0;" vertex="1" parent="1">
          <mxGeometry x="490" y="440" width="60" height="30" as="geometry" />
        </mxCell>
        <mxCell id="8VTQey7MwOSxeYWRsPwg-29" value="" style="endArrow=none;html=1;rounded=0;" edge="1" parent="1">
          <mxGeometry width="50" height="50" relative="1" as="geometry">
            <mxPoint x="680" y="480" as="sourcePoint" />
            <mxPoint x="680" y="80" as="targetPoint" />
          </mxGeometry>
        </mxCell>
        <mxCell id="8VTQey7MwOSxeYWRsPwg-31" value="" style="endArrow=none;html=1;rounded=0;" edge="1" parent="1">
          <mxGeometry width="50" height="50" relative="1" as="geometry">
            <mxPoint x="680" y="80" as="sourcePoint" />
            <mxPoint x="680" y="80" as="targetPoint" />
          </mxGeometry>
        </mxCell>
        <mxCell id="8VTQey7MwOSxeYWRsPwg-32" value="" style="endArrow=none;html=1;rounded=0;" edge="1" parent="1" source="XuWK6bejoGOQTM-Fjr_7-13">
          <mxGeometry width="50" height="50" relative="1" as="geometry">
            <mxPoint x="590" y="130" as="sourcePoint" />
            <mxPoint x="880" y="80" as="targetPoint" />
          </mxGeometry>
        </mxCell>
        <mxCell id="8VTQey7MwOSxeYWRsPwg-33" value="Tokenizes&lt;br&gt;input" style="ellipse;whiteSpace=wrap;html=1;" vertex="1" parent="1">
          <mxGeometry x="250" y="630" width="100" height="50" as="geometry" />
        </mxCell>
        <mxCell id="8VTQey7MwOSxeYWRsPwg-35" value="" style="endArrow=none;html=1;rounded=0;" edge="1" parent="1" target="8VTQey7MwOSxeYWRsPwg-12">
          <mxGeometry width="50" height="50" relative="1" as="geometry">
            <mxPoint x="299.5" y="320" as="sourcePoint" />
            <mxPoint x="300" y="120" as="targetPoint" />
          </mxGeometry>
        </mxCell>
        <mxCell id="8VTQey7MwOSxeYWRsPwg-12" value="Copies getline&amp;nbsp;" style="ellipse;whiteSpace=wrap;html=1;" vertex="1" parent="1">
          <mxGeometry x="250" y="280" width="100" height="50" as="geometry" />
        </mxCell>
        <mxCell id="8VTQey7MwOSxeYWRsPwg-36" value="" style="endArrow=none;html=1;rounded=0;" edge="1" parent="1" source="8VTQey7MwOSxeYWRsPwg-33">
          <mxGeometry width="50" height="50" relative="1" as="geometry">
            <mxPoint x="299.5" y="620" as="sourcePoint" />
            <mxPoint x="300" y="520" as="targetPoint" />
          </mxGeometry>
        </mxCell>
        <mxCell id="8VTQey7MwOSxeYWRsPwg-44" value="Gets value of PATH environment&lt;br&gt;varible" style="ellipse;whiteSpace=wrap;html=1;" vertex="1" parent="1">
          <mxGeometry x="450" y="840" width="140" height="70" as="geometry" />
        </mxCell>
        <mxCell id="8VTQey7MwOSxeYWRsPwg-46" value="" style="endArrow=none;html=1;rounded=0;" edge="1" parent="1">
          <mxGeometry width="50" height="50" relative="1" as="geometry">
            <mxPoint x="300" y="760" as="sourcePoint" />
            <mxPoint x="299.5" y="680" as="targetPoint" />
          </mxGeometry>
        </mxCell>
        <mxCell id="8VTQey7MwOSxeYWRsPwg-47" value="" style="endArrow=none;html=1;rounded=0;" edge="1" parent="1">
          <mxGeometry width="50" height="50" relative="1" as="geometry">
            <mxPoint x="310" y="760" as="sourcePoint" />
            <mxPoint x="520" y="760" as="targetPoint" />
          </mxGeometry>
        </mxCell>
        <mxCell id="8VTQey7MwOSxeYWRsPwg-51" value="" style="endArrow=none;html=1;rounded=0;" edge="1" parent="1">
          <mxGeometry width="50" height="50" relative="1" as="geometry">
            <mxPoint x="80" y="760" as="sourcePoint" />
            <mxPoint x="310" y="760" as="targetPoint" />
          </mxGeometry>
        </mxCell>
        <mxCell id="8VTQey7MwOSxeYWRsPwg-52" value="" style="endArrow=none;html=1;rounded=0;" edge="1" parent="1">
          <mxGeometry width="50" height="50" relative="1" as="geometry">
            <mxPoint x="520" y="840" as="sourcePoint" />
            <mxPoint x="520" y="760" as="targetPoint" />
          </mxGeometry>
        </mxCell>
        <mxCell id="8VTQey7MwOSxeYWRsPwg-53" value="" style="endArrow=none;html=1;rounded=0;" edge="1" parent="1">
          <mxGeometry width="50" height="50" relative="1" as="geometry">
            <mxPoint x="79.5" y="840" as="sourcePoint" />
            <mxPoint x="79.5" y="760" as="targetPoint" />
          </mxGeometry>
        </mxCell>
        <mxCell id="8VTQey7MwOSxeYWRsPwg-54" value="File starts with&lt;br&gt;&#39;/&#39; or &#39;.&#39; and is accessible via syscall" style="ellipse;whiteSpace=wrap;html=1;" vertex="1" parent="1">
          <mxGeometry x="10" y="840" width="140" height="70" as="geometry" />
        </mxCell>
        <mxCell id="8VTQey7MwOSxeYWRsPwg-56" value="" style="endArrow=none;html=1;rounded=0;" edge="1" parent="1">
          <mxGeometry width="50" height="50" relative="1" as="geometry">
            <mxPoint x="80" y="1440" as="sourcePoint" />
            <mxPoint x="80" y="910" as="targetPoint" />
          </mxGeometry>
        </mxCell>
        <mxCell id="8VTQey7MwOSxeYWRsPwg-57" value="" style="endArrow=none;html=1;rounded=0;" edge="1" parent="1">
          <mxGeometry width="50" height="50" relative="1" as="geometry">
            <mxPoint x="520" y="280" as="sourcePoint" />
            <mxPoint x="520" y="200" as="targetPoint" />
          </mxGeometry>
        </mxCell>
        <mxCell id="8VTQey7MwOSxeYWRsPwg-58" value="If execution previously failed,&lt;br&gt;exit with code 2" style="ellipse;whiteSpace=wrap;html=1;" vertex="1" parent="1">
          <mxGeometry x="465" y="280" width="110" height="70" as="geometry" />
        </mxCell>
        <mxCell id="8VTQey7MwOSxeYWRsPwg-60" value="" style="endArrow=none;html=1;rounded=0;" edge="1" parent="1">
          <mxGeometry width="50" height="50" relative="1" as="geometry">
            <mxPoint x="520" y="1000" as="sourcePoint" />
            <mxPoint x="520" y="910" as="targetPoint" />
          </mxGeometry>
        </mxCell>
        <mxCell id="8VTQey7MwOSxeYWRsPwg-61" value="Copies PATH and tokenizes it while trying to append input with resultant strings&amp;nbsp;" style="ellipse;whiteSpace=wrap;html=1;" vertex="1" parent="1">
          <mxGeometry x="465" y="1000" width="115" height="120" as="geometry" />
        </mxCell>
        <mxCell id="8VTQey7MwOSxeYWRsPwg-63" value="" style="endArrow=none;html=1;rounded=0;" edge="1" parent="1">
          <mxGeometry width="50" height="50" relative="1" as="geometry">
            <mxPoint x="520" y="960" as="sourcePoint" />
            <mxPoint x="720" y="960" as="targetPoint" />
          </mxGeometry>
        </mxCell>
        <mxCell id="8VTQey7MwOSxeYWRsPwg-64" value="If PATH is null, return&amp;nbsp;&lt;br&gt;with error message" style="ellipse;whiteSpace=wrap;html=1;" vertex="1" parent="1">
          <mxGeometry x="650" y="1000" width="140" height="70" as="geometry" />
        </mxCell>
        <mxCell id="8VTQey7MwOSxeYWRsPwg-65" value="" style="endArrow=none;html=1;rounded=0;" edge="1" parent="1">
          <mxGeometry width="50" height="50" relative="1" as="geometry">
            <mxPoint x="720" y="1000" as="sourcePoint" />
            <mxPoint x="720" y="960" as="targetPoint" />
          </mxGeometry>
        </mxCell>
        <mxCell id="8VTQey7MwOSxeYWRsPwg-67" value="" style="endArrow=none;html=1;rounded=0;" edge="1" parent="1">
          <mxGeometry width="50" height="50" relative="1" as="geometry">
            <mxPoint x="520" y="1280" as="sourcePoint" />
            <mxPoint x="519.5" y="1120" as="targetPoint" />
          </mxGeometry>
        </mxCell>
        <mxCell id="8VTQey7MwOSxeYWRsPwg-69" value="File exists and is accessible" style="ellipse;whiteSpace=wrap;html=1;" vertex="1" parent="1">
          <mxGeometry x="450" y="1280" width="140" height="80" as="geometry" />
        </mxCell>
        <mxCell id="8VTQey7MwOSxeYWRsPwg-71" value="" style="endArrow=none;html=1;rounded=0;" edge="1" parent="1">
          <mxGeometry width="50" height="50" relative="1" as="geometry">
            <mxPoint x="520" y="1200" as="sourcePoint" />
            <mxPoint x="720" y="1200" as="targetPoint" />
          </mxGeometry>
        </mxCell>
        <mxCell id="8VTQey7MwOSxeYWRsPwg-72" value="Command is not found,&lt;br&gt;prints an error message and returns null" style="ellipse;whiteSpace=wrap;html=1;" vertex="1" parent="1">
          <mxGeometry x="650" y="1280" width="140" height="70" as="geometry" />
        </mxCell>
        <mxCell id="8VTQey7MwOSxeYWRsPwg-74" value="" style="endArrow=none;html=1;rounded=0;" edge="1" parent="1">
          <mxGeometry width="50" height="50" relative="1" as="geometry">
            <mxPoint x="719.41" y="1200" as="sourcePoint" />
            <mxPoint x="719.41" y="1280" as="targetPoint" />
          </mxGeometry>
        </mxCell>
        <mxCell id="8VTQey7MwOSxeYWRsPwg-75" value="" style="endArrow=none;html=1;rounded=0;" edge="1" parent="1">
          <mxGeometry width="50" height="50" relative="1" as="geometry">
            <mxPoint x="790" y="1320" as="sourcePoint" />
            <mxPoint x="880" y="1320" as="targetPoint" />
          </mxGeometry>
        </mxCell>
        <mxCell id="8VTQey7MwOSxeYWRsPwg-76" value="" style="endArrow=none;html=1;rounded=0;" edge="1" parent="1">
          <mxGeometry width="50" height="50" relative="1" as="geometry">
            <mxPoint x="880" y="1320" as="sourcePoint" />
            <mxPoint x="880" y="80" as="targetPoint" />
          </mxGeometry>
        </mxCell>
        <mxCell id="8VTQey7MwOSxeYWRsPwg-77" value="" style="endArrow=classic;html=1;rounded=0;" edge="1" parent="1">
          <mxGeometry width="50" height="50" relative="1" as="geometry">
            <mxPoint x="790" y="1320" as="sourcePoint" />
            <mxPoint x="850" y="1320" as="targetPoint" />
          </mxGeometry>
        </mxCell>
        <mxCell id="8VTQey7MwOSxeYWRsPwg-78" value="" style="endArrow=classic;html=1;rounded=0;" edge="1" parent="1">
          <mxGeometry width="50" height="50" relative="1" as="geometry">
            <mxPoint x="680" y="80" as="sourcePoint" />
            <mxPoint x="600" y="80" as="targetPoint" />
          </mxGeometry>
        </mxCell>
        <mxCell id="8VTQey7MwOSxeYWRsPwg-79" value="" style="endArrow=classic;html=1;rounded=0;" edge="1" parent="1">
          <mxGeometry width="50" height="50" relative="1" as="geometry">
            <mxPoint x="880" y="880" as="sourcePoint" />
            <mxPoint x="880" y="760" as="targetPoint" />
          </mxGeometry>
        </mxCell>
        <mxCell id="8VTQey7MwOSxeYWRsPwg-80" value="" style="endArrow=classic;html=1;rounded=0;" edge="1" parent="1">
          <mxGeometry width="50" height="50" relative="1" as="geometry">
            <mxPoint x="790" y="1040" as="sourcePoint" />
            <mxPoint x="880" y="1040" as="targetPoint" />
          </mxGeometry>
        </mxCell>
        <mxCell id="8VTQey7MwOSxeYWRsPwg-81" value="" style="endArrow=none;html=1;rounded=0;" edge="1" parent="1">
          <mxGeometry width="50" height="50" relative="1" as="geometry">
            <mxPoint x="520" y="1440" as="sourcePoint" />
            <mxPoint x="520" y="1360" as="targetPoint" />
          </mxGeometry>
        </mxCell>
        <mxCell id="8VTQey7MwOSxeYWRsPwg-82" value="File exists and is accessible" style="ellipse;whiteSpace=wrap;html=1;" vertex="1" parent="1">
          <mxGeometry x="230" y="1400" width="140" height="80" as="geometry" />
        </mxCell>
        <mxCell id="8VTQey7MwOSxeYWRsPwg-83" value="" style="endArrow=none;html=1;rounded=0;" edge="1" parent="1">
          <mxGeometry width="50" height="50" relative="1" as="geometry">
            <mxPoint x="370" y="1440" as="sourcePoint" />
            <mxPoint x="520" y="1440" as="targetPoint" />
          </mxGeometry>
        </mxCell>
        <mxCell id="8VTQey7MwOSxeYWRsPwg-86" value="" style="endArrow=none;html=1;rounded=0;entryX=0;entryY=0.5;entryDx=0;entryDy=0;" edge="1" parent="1" target="8VTQey7MwOSxeYWRsPwg-82">
          <mxGeometry width="50" height="50" relative="1" as="geometry">
            <mxPoint x="80" y="1440" as="sourcePoint" />
            <mxPoint x="130" y="1390" as="targetPoint" />
          </mxGeometry>
        </mxCell>
        <mxCell id="8VTQey7MwOSxeYWRsPwg-88" value="" style="endArrow=none;html=1;rounded=0;" edge="1" parent="1">
          <mxGeometry width="50" height="50" relative="1" as="geometry">
            <mxPoint x="300" y="1560" as="sourcePoint" />
            <mxPoint x="300" y="1480" as="targetPoint" />
          </mxGeometry>
        </mxCell>
        <mxCell id="8VTQey7MwOSxeYWRsPwg-89" value="Calls fork in order to&lt;br&gt;send child process execute&lt;br&gt;the command" style="ellipse;whiteSpace=wrap;html=1;" vertex="1" parent="1">
          <mxGeometry x="230" y="1560" width="140" height="80" as="geometry" />
        </mxCell>
        <mxCell id="8VTQey7MwOSxeYWRsPwg-90" value="" style="endArrow=none;html=1;rounded=0;" edge="1" parent="1">
          <mxGeometry width="50" height="50" relative="1" as="geometry">
            <mxPoint x="370" y="1600" as="sourcePoint" />
            <mxPoint x="520" y="1600" as="targetPoint" />
          </mxGeometry>
        </mxCell>
        <mxCell id="8VTQey7MwOSxeYWRsPwg-91" value="" style="endArrow=none;html=1;rounded=0;entryX=0;entryY=0.5;entryDx=0;entryDy=0;" edge="1" parent="1">
          <mxGeometry width="50" height="50" relative="1" as="geometry">
            <mxPoint x="300" y="1720" as="sourcePoint" />
            <mxPoint x="299.47" y="1640" as="targetPoint" />
          </mxGeometry>
        </mxCell>
        <mxCell id="8VTQey7MwOSxeYWRsPwg-94" value="" style="endArrow=none;html=1;rounded=0;" edge="1" parent="1">
          <mxGeometry width="50" height="50" relative="1" as="geometry">
            <mxPoint x="650" y="1600" as="sourcePoint" />
            <mxPoint x="880" y="1600" as="targetPoint" />
          </mxGeometry>
        </mxCell>
        <mxCell id="8VTQey7MwOSxeYWRsPwg-96" value="Parent process&lt;br&gt;returns -1 and goes&lt;br&gt;back in the loop" style="ellipse;whiteSpace=wrap;html=1;" vertex="1" parent="1">
          <mxGeometry x="510" y="1560" width="140" height="80" as="geometry" />
        </mxCell>
        <mxCell id="8VTQey7MwOSxeYWRsPwg-97" value="" style="endArrow=none;html=1;rounded=0;" edge="1" parent="1">
          <mxGeometry width="50" height="50" relative="1" as="geometry">
            <mxPoint x="880" y="1600" as="sourcePoint" />
            <mxPoint x="880" y="1320" as="targetPoint" />
          </mxGeometry>
        </mxCell>
        <mxCell id="8VTQey7MwOSxeYWRsPwg-98" value="" style="endArrow=classic;html=1;rounded=0;" edge="1" parent="1">
          <mxGeometry width="50" height="50" relative="1" as="geometry">
            <mxPoint x="650" y="1600" as="sourcePoint" />
            <mxPoint x="720" y="1600" as="targetPoint" />
          </mxGeometry>
        </mxCell>
        <mxCell id="8VTQey7MwOSxeYWRsPwg-99" value="Child process executes command and sends back a flag with it&#39;s output" style="ellipse;whiteSpace=wrap;html=1;" vertex="1" parent="1">
          <mxGeometry x="225" y="1720" width="150" height="80" as="geometry" />
        </mxCell>
        <mxCell id="8VTQey7MwOSxeYWRsPwg-100" value="" style="endArrow=none;html=1;rounded=0;" edge="1" parent="1">
          <mxGeometry width="50" height="50" relative="1" as="geometry">
            <mxPoint x="375" y="1760" as="sourcePoint" />
            <mxPoint x="880" y="1760" as="targetPoint" />
          </mxGeometry>
        </mxCell>
        <mxCell id="8VTQey7MwOSxeYWRsPwg-101" value="" style="endArrow=none;html=1;rounded=0;" edge="1" parent="1">
          <mxGeometry width="50" height="50" relative="1" as="geometry">
            <mxPoint x="880" y="1760" as="sourcePoint" />
            <mxPoint x="880" y="1600" as="targetPoint" />
          </mxGeometry>
        </mxCell>
        <mxCell id="8VTQey7MwOSxeYWRsPwg-102" value="" style="endArrow=classic;html=1;rounded=0;" edge="1" parent="1">
          <mxGeometry width="50" height="50" relative="1" as="geometry">
            <mxPoint x="555" y="1760" as="sourcePoint" />
            <mxPoint x="640" y="1760" as="targetPoint" />
          </mxGeometry>
        </mxCell>
        <mxCell id="8VTQey7MwOSxeYWRsPwg-103" value="" style="endArrow=classic;html=1;rounded=0;" edge="1" parent="1">
          <mxGeometry width="50" height="50" relative="1" as="geometry">
            <mxPoint x="880" y="1720" as="sourcePoint" />
            <mxPoint x="880" y="1640" as="targetPoint" />
          </mxGeometry>
        </mxCell>
      </root>
    </mxGraphModel>
  </diagram>
</mxfile>
